<svg xmlns="http://www.w3.org/2000/svg" width="512" height="512" viewBox="0 0 512 512">
  <g transform="translate(-108, -108.1) scale(1.4222)">
    <!-- 기존 내용물 -->
    <circle cx="256" cy="256" r="180" fill="#3EA2FF"/>
    <path d="M 308.763 324.739 C 299.679 324.739 292.313 317.431 292.313 308.42 L 292.313 202.978 C 292.313 183.117 276.023 166.96 256.001 166.96 C 235.979 166.96 219.689 183.119 219.689 202.978 L 219.689 308.42 C 219.689 317.431 212.323 324.739 203.237 324.739 C 194.153 324.739 186.786 317.431 186.786 308.42 L 186.786 202.978 C 186.786 165.122 217.835 134.322 256.001 134.322 C 294.167 134.322 325.215 165.122 325.215 202.978 L 325.215 308.419 C 325.214 317.431 317.85 324.739 308.763 324.739 Z" fill="#ffffff" />
    <path d="M 325.755 238.621 L 186.245 238.621 C 177.964 238.621 171.252 245.132 171.252 253.165 L 171.252 363.132 C 171.252 371.167 177.964 377.679 186.245 377.679 L 325.755 377.679 C 334.036 377.679 340.748 371.167 340.748 363.132 L 340.748 253.164 C 340.748 245.131 334.036 238.621 325.755 238.621 Z" fill="#b5b5b5" />
    <path d="M 271.044 261.108 L 243.276 261.455 L 233.062 308.992 L 247.828 309.007 L 236.184 358.309 L 278.938 295.252 L 260.375 295.252 L 271.044 261.108 Z" fill="#5c5c5c" />
  </g>
</svg>
